<svg width="16" height="16" viewBox="0 0 16 16" fill="none" xmlns="http://www.w3.org/2000/svg">
<path fill-rule="evenodd" clip-rule="evenodd" d="M15.4039 4.67603C15.218 4.46378 14.9889 4.29364 14.732 4.17706C14.475 4.06048 14.1961 4.00012 13.9139 4H13.696L12.89 0.757019C12.8372 0.541338 12.7136 0.349564 12.5391 0.212341C12.3645 0.0751185 12.149 0.000346229 11.9269 0H3.97596C3.75388 0.00111691 3.5385 0.0761299 3.36377 0.213196C3.18905 0.350262 3.06492 0.541601 3.01096 0.757019L2.20594 4H1.98795C1.70578 4.00012 1.42688 4.06048 1.16993 4.17706C0.912968 4.29364 0.683887 4.46378 0.497959 4.67603C0.311293 4.88924 0.17182 5.13953 0.0887487 5.41046C0.00567748 5.68139 -0.0191379 5.96679 0.0159338 6.24799L1.00895 14.248C1.0677 14.7303 1.30066 15.1746 1.66401 15.4973C2.02735 15.8199 2.49602 15.9987 2.98194 16H12.92C13.4059 15.9987 13.8745 15.8199 14.2379 15.4973C14.6012 15.1746 14.8342 14.7303 14.8929 14.248L15.8869 6.24799C15.9218 5.96672 15.8968 5.68126 15.8136 5.41034C15.7303 5.13942 15.5907 4.88919 15.4039 4.67603ZM4.75196 2H11.152L11.652 4H4.25895L4.75196 2ZM2.98194 14L1.98795 6H13.9139L12.92 14H2.98194ZM5.96595 8C5.70194 8.00185 5.4494 8.10801 5.26337 8.29535C5.07735 8.48269 4.97293 8.73599 4.97293 9V11C4.96871 11.1331 4.99128 11.2657 5.03931 11.39C5.08734 11.5142 5.15986 11.6275 5.25254 11.7231C5.34521 11.8188 5.45616 11.8949 5.5788 11.9468C5.70144 11.9988 5.83325 12.0255 5.96643 12.0255C6.09962 12.0255 6.23146 11.9988 6.3541 11.9468C6.47674 11.8949 6.58769 11.8188 6.68036 11.7231C6.77304 11.6275 6.84553 11.5142 6.89356 11.39C6.94159 11.2657 6.96416 11.1331 6.95993 11V9C6.95994 8.73582 6.8554 8.48235 6.66916 8.29498C6.48292 8.10762 6.23012 8.00159 5.96595 8ZM9.94196 8C9.67778 8.00159 9.42495 8.10762 9.23871 8.29498C9.05247 8.48235 8.94794 8.73582 8.94794 9V11C8.94794 11.2636 9.05267 11.5165 9.23908 11.7029C9.42549 11.8893 9.67833 11.994 9.94196 11.994C10.2056 11.994 10.4584 11.8893 10.6448 11.7029C10.8312 11.5165 10.9359 11.2636 10.9359 11V9C10.9359 8.73478 10.8306 8.48044 10.643 8.29291C10.4555 8.10537 10.2012 8 9.93595 8H9.94196Z" fill="#D3DFE1"/>
</svg>
