<svg width="17" height="16" viewBox="0 0 17 16" fill="none" xmlns="http://www.w3.org/2000/svg">
<path fill-rule="evenodd" clip-rule="evenodd" d="M15.8939 13.343C15.5069 12.3123 14.9135 11.3716 14.15 10.5783C13.3865 9.78512 12.4691 9.15616 11.4539 8.73001C12.006 8.27664 12.4518 7.70762 12.7599 7.06311C13.068 6.41861 13.2308 5.71433 13.237 5C13.217 3.74812 12.7338 2.54806 11.8807 1.63163C11.0276 0.715191 9.86519 0.14741 8.61794 0.0379972C8.2095 -0.012625 7.79639 -0.012625 7.38796 0.0379972C6.14142 0.148345 4.97993 0.716537 4.12767 1.63288C3.27541 2.54922 2.79278 3.74875 2.77294 5C2.77887 5.71436 2.94165 6.4187 3.24974 7.06324C3.55784 7.70777 4.00376 8.27677 4.55596 8.73001C3.54061 9.156 2.62296 9.78486 1.8593 10.5781C1.09564 11.3713 0.502057 12.3122 0.114946 13.343C0.00574984 13.6444 -0.0266664 13.9682 0.0206471 14.2853C0.0679607 14.6023 0.19351 14.9026 0.385943 15.159C0.585631 15.4223 0.84399 15.6355 1.14049 15.7815C1.43699 15.9275 1.76346 16.0023 2.09395 16H13.9229C14.2531 16.0022 14.5793 15.9273 14.8754 15.7813C15.1716 15.6353 15.4296 15.4222 15.629 15.159C15.8209 14.9023 15.9457 14.6018 15.9919 14.2846C16.0382 13.9675 16.0045 13.6438 15.8939 13.343ZM4.86595 5C4.87978 4.24177 5.17612 3.51598 5.69698 2.96479C6.21784 2.41359 6.92569 2.07667 7.68193 2.01999C7.89744 1.99332 8.11544 1.99332 8.33095 2.01999C8.8997 2.10719 9.43153 2.35566 9.86339 2.7359C10.2952 3.11615 10.609 3.61224 10.7675 4.16538C10.926 4.71851 10.9226 5.3055 10.7577 5.85675C10.5927 6.40801 10.2732 6.90042 9.83696 7.27561C9.40071 7.6508 8.86604 7.89303 8.29631 7.97361C7.72658 8.05418 7.14567 7.9697 6.62248 7.7302C6.0993 7.4907 5.65577 7.10622 5.34444 6.62232C5.03311 6.13842 4.86705 5.5754 4.86595 5ZM2.09194 14C2.56586 12.8191 3.38245 11.8071 4.43654 11.0943C5.49063 10.3815 6.73399 10.0006 8.00646 10.0006C9.27893 10.0006 10.5222 10.3815 11.5763 11.0943C12.6304 11.8071 13.447 12.8191 13.9209 14H2.09395H2.09194Z" fill="#D3DFE1"/>
</svg>
