<svg width="17" height="17" viewBox="0 0 17 17" fill="none" xmlns="http://www.w3.org/2000/svg">
<path fill-rule="evenodd" clip-rule="evenodd" d="M15.7059 14.2931L10.906 9.47104C11.7659 8.248 12.135 6.74656 11.9401 5.26425C11.7453 3.78193 11.0007 2.42688 9.85392 1.46762C8.70717 0.508353 7.24191 0.0148589 5.74849 0.0849264C4.25506 0.154994 2.84244 0.783494 1.79054 1.84591C0.738638 2.90833 0.124216 4.32715 0.0690113 5.82119C0.0138069 7.31524 0.521846 8.77553 1.49247 9.91269C2.4631 11.0498 3.82549 11.7809 5.30967 11.961C6.79386 12.1411 8.29154 11.7571 9.50596 10.885L14.306 15.707C14.3949 15.8149 14.5055 15.9029 14.6305 15.9654C14.7556 16.0279 14.8924 16.0635 15.0321 16.0699C15.1718 16.0762 15.3112 16.0532 15.4414 16.0023C15.5717 15.9515 15.6898 15.8739 15.7882 15.7745C15.8865 15.6751 15.963 15.5562 16.0126 15.4255C16.0621 15.2948 16.0838 15.1551 16.076 15.0155C16.0683 14.8759 16.0313 14.7395 15.9676 14.615C15.9039 14.4906 15.8147 14.3809 15.7059 14.2931ZM6.05094 10C5.2589 10.0044 4.48339 9.7735 3.8227 9.33664C3.16202 8.89977 2.64592 8.27656 2.33979 7.54605C2.03367 6.81554 1.95131 6.01061 2.10316 5.23324C2.25501 4.45587 2.63421 3.74108 3.19273 3.17947C3.75125 2.61786 4.46394 2.23471 5.24046 2.07858C6.01698 1.92245 6.82239 2.00036 7.55458 2.30246C8.28676 2.60455 8.91278 3.11721 9.35328 3.77548C9.79379 4.43374 10.0289 5.20797 10.0289 6.00003C10.029 7.05709 9.61058 8.07119 8.86518 8.82071C8.11979 9.57022 7.10799 9.99421 6.05094 10Z" fill="#262F38"/>
</svg>
